<?xml version="1.0" standalone="no"?>
<!DOCTYPE svg PUBLIC "-//W3C//DTD SVG 20010904//EN"
 "http://www.w3.org/TR/2001/REC-SVG-20010904/DTD/svg10.dtd">
<svg version="1.0" xmlns="http://www.w3.org/2000/svg"
 width="1280.000000pt" height="1226.000000pt" viewBox="0 0 1280.000000 1226.000000"
 preserveAspectRatio="xMidYMid meet">
<g transform="translate(0.000000,1226.000000) scale(0.100000,-0.100000)"
fill="#000000" stroke="none">
<path d="M2665 12250 c-11 -4 -47 -15 -80 -25 -144 -41 -273 -153 -349 -302
-101 -200 -59 -451 104 -613 81 -82 146 -110 271 -117 171 -11 279 38 440 197
154 151 194 241 194 435 0 139 -20 191 -99 271 -36 36 -88 75 -125 93 -102 52
-297 86 -356 61z"/>
<path d="M4825 12143 c-85 -19 -169 -75 -210 -140 -18 -27 -51 -59 -85 -80
-75 -48 -106 -78 -152 -148 -85 -130 -102 -297 -42 -419 45 -92 151 -198 242
-243 76 -38 76 -38 197 -37 200 2 358 61 487 183 164 154 191 354 78 589 -101
211 -229 304 -417 301 -43 -1 -87 -3 -98 -6z m358 -218 c24 -36 14 -26 -39 35
-25 30 -29 37 -10 20 15 -14 37 -38 49 -55z m-372 -122 c13 -16 12 -17 -3 -4
-17 13 -22 21 -14 21 2 0 10 -8 17 -17z m489 -131 c6 -28 10 -60 8 -70 -2 -9
-11 19 -20 63 -9 44 -19 89 -22 100 -4 11 0 7 8 -10 8 -16 20 -54 26 -83z
m-749 -249 c13 -16 12 -17 -3 -4 -17 13 -22 21 -14 21 2 0 10 -8 17 -17z"/>
<path d="M1130 10989 c-72 -12 -147 -48 -190 -90 -30 -29 -75 -83 -175 -206
-17 -21 -20 -39 -20 -116 0 -85 3 -98 36 -167 118 -245 319 -375 549 -355 145
12 308 86 408 184 124 120 143 271 57 458 -67 145 -127 203 -263 253 -125 46
-274 60 -402 39z"/>
<path d="M3415 10879 c-85 -11 -242 -49 -350 -84 -138 -45 -271 -118 -443
-243 -198 -145 -284 -220 -351 -309 -54 -72 -140 -231 -161 -298 -7 -22 -29
-71 -50 -110 -47 -87 -82 -198 -106 -335 -25 -145 -26 -462 -2 -571 40 -178
106 -317 264 -556 124 -188 226 -292 389 -398 65 -42 152 -103 194 -135 104
-79 193 -126 287 -152 66 -17 106 -21 239 -21 88 0 205 5 260 12 148 17 583
129 744 191 179 69 345 216 526 467 182 252 263 402 305 567 59 231 45 544
-40 865 -22 84 -50 178 -63 209 -33 83 -128 239 -197 326 -117 147 -351 360
-477 435 -84 49 -311 126 -416 140 -92 13 -452 12 -552 0z"/>
<path d="M5972 10280 c-84 -18 -145 -54 -202 -120 -30 -34 -78 -88 -107 -120
-33 -37 -56 -75 -63 -102 -40 -147 85 -390 262 -508 117 -78 282 -103 429 -65
161 42 332 165 384 276 49 107 28 267 -56 415 -59 104 -152 170 -294 209 -70
19 -290 28 -353 15z"/>
<path d="M890 8931 c-175 -57 -323 -200 -382 -369 -32 -93 -32 -239 0 -333 28
-81 80 -171 130 -222 75 -78 216 -124 343 -114 131 11 227 61 365 190 131 122
185 229 199 393 8 89 -6 188 -35 243 -46 89 -187 190 -300 215 -94 22 -249 20
-320 -3z"/>
<path d="M5803 8375 c-185 -50 -360 -226 -407 -410 -45 -170 7 -371 129 -503
61 -66 131 -104 223 -122 80 -16 192 -7 267 21 112 42 298 207 364 323 62 108
83 306 47 429 -33 114 -182 230 -335 263 -84 17 -220 17 -288 -1z"/>
<path d="M2342 7316 c-75 -19 -140 -63 -190 -129 -24 -32 -68 -73 -98 -92 -76
-49 -128 -107 -168 -186 -92 -185 -68 -350 73 -501 73 -78 135 -120 210 -142
136 -40 365 -2 519 86 32 17 84 59 118 92 124 124 161 266 115 446 -36 144
-132 303 -219 363 -94 66 -246 92 -360 63z m255 -108 c22 -11 49 -29 60 -40
12 -13 0 -9 -36 13 -46 29 -65 34 -129 38 -48 2 -70 6 -61 12 20 13 117 0 166
-23z m-272 -213 c44 -25 64 -45 47 -45 -5 0 -15 7 -23 16 -17 21 -83 54 -109
54 -11 0 -20 4 -20 9 0 14 54 -4 105 -34z m503 -140 c0 -16 -2 -15 -8 5 -11
34 -11 60 0 35 5 -11 8 -29 8 -40z m-618 -314 c37 -7 40 -9 14 -10 -32 -1
-124 40 -145 65 -7 9 10 2 37 -15 27 -17 70 -35 94 -40z m93 -8 c-7 -2 -19 -2
-25 0 -7 3 -2 5 12 5 14 0 19 -2 13 -5z"/>
<path d="M4272 7245 c-103 -23 -156 -61 -243 -170 -31 -38 -64 -76 -73 -84
-10 -8 -26 -32 -37 -52 -58 -115 19 -328 174 -476 115 -110 208 -148 362 -146
119 0 218 29 330 95 232 137 282 318 160 573 -64 134 -155 205 -320 250 -86
23 -274 28 -353 10z"/>
<path d="M9831 7202 c-167 -105 -540 -457 -956 -902 -423 -453 -666 -733
-1020 -1175 -358 -448 -538 -703 -770 -1089 -243 -406 -315 -544 -445 -851
-65 -152 -81 -182 -106 -195 -16 -8 -50 -27 -76 -43 l-46 -28 -69 29 c-38 16
-101 48 -140 70 -97 54 -108 57 -132 33 -12 -12 -21 -28 -21 -37 0 -28 68 -82
156 -125 46 -22 84 -44 84 -48 0 -5 -18 -21 -40 -36 -21 -15 -62 -51 -90 -81
-28 -30 -55 -54 -59 -54 -5 0 -29 16 -55 36 -68 52 -132 78 -306 124 -217 58
-383 74 -498 49 -54 -11 -95 -35 -259 -148 l-107 -74 -25 34 c-37 50 -109 117
-166 155 -58 38 -143 68 -340 119 -123 32 -156 36 -275 38 -151 2 -188 -5
-268 -55 -123 -77 -268 -186 -306 -230 -22 -26 -45 -48 -50 -48 -4 0 -29 15
-55 34 -76 56 -124 75 -313 126 -154 42 -199 50 -307 56 -157 8 -228 -7 -316
-68 -160 -111 -218 -148 -230 -148 -7 0 -26 17 -42 39 -44 60 -132 130 -208
167 -160 76 -513 145 -658 129 -105 -11 -145 -33 -383 -207 -36 -27 -70 -48
-76 -48 -6 0 -39 11 -72 24 -34 14 -133 44 -221 67 -156 41 -164 43 -320 43
-135 1 -165 -2 -192 -17 l-33 -18 -1 -147 c0 -81 -3 -446 -6 -812 -7 -907 -8
-1123 -4 -1265 1 -22 2 -161 1 -310 0 -148 3 -280 5 -292 l5 -23 6390 0 6390
1 0 1234 c0 679 -3 1235 -7 1235 -3 0 -15 -8 -26 -18 -18 -15 -18 -14 1 13 17
23 23 50 28 121 8 103 -3 244 -18 244 -5 0 -46 -26 -91 -59 -128 -92 -115 -91
-189 -17 -112 112 -187 146 -475 217 -109 27 -148 31 -263 32 -182 2 -191 -2
-471 -204 l-50 -37 -85 28 c-47 15 -89 31 -94 36 -5 5 -73 250 -150 544 -180
685 -221 835 -396 1461 -246 884 -292 1078 -394 1684 -28 165 -66 376 -85 470
-19 93 -35 186 -35 207 0 38 -26 68 -61 68 -9 0 -57 -26 -108 -58z m11 -132
c-3 -30 -97 -523 -231 -1212 -56 -285 -146 -751 -202 -1035 -55 -285 -156
-806 -224 -1157 -69 -352 -129 -644 -134 -649 -11 -11 -161 19 -178 36 -7 7
-22 95 -34 197 -20 163 -23 235 -23 610 -1 621 36 1021 144 1546 79 382 172
649 391 1119 51 110 101 214 111 230 25 43 350 345 368 342 9 -2 14 -12 12
-27z m-1772 -4030 c146 -6 326 -15 400 -20 162 -12 550 -66 562 -78 22 -22 -6
-59 -81 -109 -43 -29 -101 -77 -130 -108 -54 -57 -71 -65 -91 -41 -44 54 -162
102 -395 163 -129 33 -152 36 -290 37 -172 1 -193 -5 -314 -91 -56 -41 -145
-100 -188 -126 -7 -5 -26 11 -48 40 -89 118 -203 182 -420 239 -77 20 -149 41
-160 47 -19 10 -19 10 0 17 11 4 133 13 270 19 472 22 552 23 885 11z m-6494
-362 c38 -12 61 -23 51 -26 -9 -2 -40 4 -67 13 -41 14 -82 16 -223 13 -161 -3
-176 -5 -236 -31 -35 -15 -67 -25 -69 -22 -3 3 15 14 40 25 87 38 149 49 294
49 119 1 153 -2 210 -21z m2674 -5 c54 -26 26 -31 -40 -8 -31 11 -85 15 -204
15 -143 0 -169 -3 -231 -24 -77 -26 -100 -27 -39 -1 91 38 136 45 304 42 145
-2 170 -5 210 -24z m7680 5 c76 -25 65 -37 -14 -14 -85 25 -334 22 -421 -5
-67 -20 -104 -19 -49 1 78 30 137 39 275 39 124 1 155 -2 209 -21z m-5450 -2
c0 -2 -21 -11 -47 -21 -27 -10 -74 -31 -107 -47 -77 -38 -83 -30 -7 11 82 43
161 72 161 57z m2475 -76 c-3 -5 -16 -15 -28 -21 -21 -10 -21 -9 2 10 25 23
36 27 26 11z m-6052 -35 c31 -10 57 -22 57 -27 0 -11 -4 -11 -89 13 -66 19
-94 21 -221 16 -111 -3 -158 -9 -200 -25 -95 -35 -97 -35 -80 -23 28 20 125
53 180 62 92 13 288 4 353 -16z m2659 0 c27 -9 51 -22 54 -27 8 -12 -5 -10
-106 17 -92 25 -319 17 -404 -14 -33 -12 -61 -19 -64 -16 -3 2 8 9 24 15 16 6
42 16 57 22 79 31 353 33 439 3z m2653 0 c56 -20 85 -41 45 -32 -14 2 -52 12
-85 21 -64 17 -257 22 -332 7 -24 -5 -43 -5 -43 0 0 4 15 10 33 13 17 3 43 8
57 10 59 11 276 -2 325 -19z"/>
</g>
</svg>
